<?xml version="1.0" encoding="UTF-8" standalone="no"?><!DOCTYPE svg PUBLIC "-//W3C//DTD SVG 1.1//EN" "http://www.w3.org/Graphics/SVG/1.1/DTD/svg11.dtd"><svg width="100%" height="100%" viewBox="0 0 30 30" version="1.1" xmlns="http://www.w3.org/2000/svg" xmlns:xlink="http://www.w3.org/1999/xlink" xml:space="preserve" xmlns:serif="http://www.serif.com/" style="fill-rule:evenodd;clip-rule:evenodd;stroke-linejoin:round;stroke-miterlimit:2;"><path d="M28.043,1.765l0.097,0.014l0.095,0.024l0.092,0.033l0.089,0.042l0.084,0.051l0.079,0.058l0.073,0.066l0.066,0.073l0.058,0.078l0.051,0.085l0.041,0.088l0.034,0.093l0.023,0.095l0.015,0.097l0.005,0.098l0,25.2l-0.005,0.098l-0.015,0.097l-0.023,0.095l-0.034,0.093l-0.041,0.088l-0.051,0.085l-0.058,0.078l-0.066,0.073l-0.073,0.066l-0.079,0.058l-0.084,0.051l-0.089,0.042l-0.092,0.033l-0.095,0.024l-0.097,0.014l-0.098,0.005l-25.2,0l-0.098,-0.005l-0.097,-0.014l-0.096,-0.024l-0.092,-0.033l-0.089,-0.042l-0.084,-0.051l-0.079,-0.058l-0.072,-0.066l-0.066,-0.073l-0.059,-0.078l-0.05,-0.085l-0.042,-0.088l-0.033,-0.093l-0.024,-0.095l-0.015,-0.097l-0.004,-0.098l0,-25.2l0.004,-0.098l0.015,-0.097l0.024,-0.095l0.033,-0.093l0.042,-0.088l0.05,-0.085l0.059,-0.078l0.066,-0.073l0.072,-0.066l0.079,-0.058l0.084,-0.051l0.089,-0.042l0.092,-0.033l0.096,-0.024l0.097,-0.014l0.098,-0.005l25.2,0l0.098,0.005Zm-25.298,0.995l0,25.2l25.2,0l0,-25.2l-25.2,0Z" style="fill:#fff;"/><text x="7.747px" y="21.362px" style="font-family:'Alfarn';font-weight:700;font-size:17.15px;fill:#fff;">M</text></svg>